<?xml version="1.0" standalone="no"?>
<!DOCTYPE svg PUBLIC "-//W3C//DTD SVG 20010904//EN"
 "http://www.w3.org/TR/2001/REC-SVG-20010904/DTD/svg10.dtd">
<svg version="1.0" xmlns="http://www.w3.org/2000/svg"
 width="650.000000pt" height="650.000000pt" viewBox="0 0 650.000000 650.000000"
 preserveAspectRatio="xMidYMid meet">

<g transform="translate(0.000000,650.000000) scale(0.100000,-0.100000)"
fill="#000000" stroke="none">
<path d="M3060 6090 c-270 -18 -641 -105 -860 -202 -148 -65 -197 -89 -304
-146 -387 -210 -745 -536 -1007 -919 -38 -56 -69 -105 -69 -108 0 -4 -8 -19
-19 -33 -27 -39 -135 -254 -171 -342 -215 -515 -278 -1046 -190 -1595 42 -264
122 -511 245 -760 167 -338 321 -555 574 -805 423 -419 926 -671 1581 -792
114 -21 153 -23 445 -23 306 1 327 2 470 28 475 88 863 249 1235 515 484 346
870 897 1054 1505 114 376 143 830 80 1257 -35 240 -132 553 -243 785 -344
720 -945 1247 -1710 1501 -352 116 -717 160 -1111 134z m420 -130 c671 -49
1269 -318 1731 -779 376 -375 608 -776 741 -1281 61 -233 81 -435 75 -748 -5
-274 -26 -435 -82 -647 -57 -214 -185 -522 -278 -668 -20 -31 -37 -60 -37 -63
0 -9 -82 -127 -168 -241 -96 -129 -307 -348 -432 -450 -118 -97 -262 -193
-418 -279 -72 -41 -134 -74 -137 -74 -2 0 -28 -11 -57 -25 -361 -167 -821
-258 -1233 -242 -343 14 -683 90 -989 222 -468 201 -843 505 -1167 945 -14 19
-56 84 -93 143 -219 355 -348 736 -392 1157 -19 183 -14 514 10 675 73 480
243 889 530 1275 23 30 43 57 46 60 3 3 32 37 64 75 298 351 717 639 1156 793
377 133 734 181 1130 152z"/>
<path d="M2960 5775 c-287 -36 -528 -109 -815 -250 -519 -254 -924 -659 -1179
-1180 -185 -377 -260 -707 -258 -1135 2 -255 19 -401 71 -611 74 -302 181
-546 347 -795 108 -161 171 -240 304 -378 396 -410 912 -677 1475 -763 181
-27 613 -25 780 5 235 41 424 97 625 184 722 312 1277 963 1470 1723 62 243
74 352 74 650 0 234 -3 287 -23 395 -36 202 -95 415 -156 560 -20 47 -44 103
-53 125 -9 22 -31 66 -49 98 -18 33 -33 61 -33 64 0 14 -118 195 -193 296 -87
116 -325 366 -427 448 -30 24 -57 46 -60 49 -9 10 -163 115 -233 158 -76 48
-271 147 -362 185 -198 82 -495 157 -700 177 -139 13 -479 10 -605 -5z m-456
-662 c0 -214 2 -271 14 -285 7 -9 12 -31 10 -50 -2 -25 -8 -33 -23 -33 -19 0
-20 5 -16 218 3 203 2 219 -15 232 -13 10 -14 14 -6 15 11 0 13 18 11 78 -3
73 4 108 19 98 4 -2 7 -125 6 -273z m66 249 c-6 -2 -11 -38 -12 -80 l-1 -77
-6 85 c-6 81 3 116 21 87 4 -7 3 -13 -2 -15z m134 -12 c-4 -23 -2 -52 5 -69 8
-18 14 -106 16 -242 1 -118 4 -232 6 -254 4 -37 2 -40 -21 -40 -29 0 -38 30
-22 73 6 15 13 108 17 207 5 143 3 190 -9 228 -8 27 -12 55 -10 62 3 7 1 22
-4 32 -12 22 -5 43 14 43 11 0 13 -9 8 -40z m1176 25 c0 -8 -7 -15 -15 -15 -8
0 -15 7 -15 15 0 8 7 15 15 15 8 0 15 -7 15 -15z m75 -24 c-3 -12 -11 -21 -16
-21 -10 0 -12 43 -2 53 12 13 25 -10 18 -32z m64 -28 l-2 -68 -7 50 c-4 28 -8
55 -9 60 -5 16 -2 25 9 25 6 0 9 -28 9 -67z m69 55 c8 -8 8 -16 0 -32 -16 -28
-25 -543 -10 -558 15 -15 25 82 26 254 1 134 3 148 19 148 14 0 16 -6 11 -37
-8 -58 -9 -323 0 -365 7 -30 5 -39 -8 -44 -9 -3 -23 -1 -30 5 -10 8 -16 9 -21
1 -3 -5 -15 -10 -26 -10 -16 0 -19 7 -19 44 0 24 4 46 9 48 5 2 12 104 15 227
4 124 9 235 12 247 3 12 1 32 -6 43 -17 33 3 54 28 29z m-1466 -47 c-3 -35 1
-48 21 -69 19 -21 26 -42 31 -92 4 -38 2 -71 -4 -80 -7 -11 -10 1 -10 43 0 58
-16 103 -44 126 -20 17 -23 125 -3 118 8 -2 11 -19 9 -46z m208 29 c0 -11 -7
-20 -15 -20 -15 0 -21 21 -8 33 12 13 23 7 23 -13z m936 -1 c3 -6 1 -16 -5
-22 -6 -6 -12 -25 -13 -41 -1 -24 -3 -20 -7 14 -4 25 -5 48 -3 53 5 10 20 9
28 -4z m-853 -260 c7 -202 12 -257 24 -271 8 -9 13 -30 11 -50 -2 -28 -7 -33
-28 -33 -27 0 -30 15 -18 115 8 61 -11 451 -22 471 -10 18 -2 31 14 26 7 -2
14 -94 19 -258z m61 119 c2 -79 7 -159 10 -178 7 -40 26 -207 29 -260 2 -29
-2 -36 -19 -38 -27 -4 -36 26 -23 71 5 17 9 64 9 104 0 64 -2 72 -20 75 -12 2
-20 8 -18 13 1 6 8 9 15 7 15 -3 17 12 4 36 -15 28 -19 312 -4 312 9 0 13 -40
17 -142z m612 126 c-3 -9 -6 -56 -6 -105 0 -50 -4 -88 -9 -85 -5 3 -11 -13
-14 -35 -3 -26 -20 -59 -48 -95 -43 -57 -65 -67 -33 -15 81 127 78 117 82 238
4 91 7 113 19 113 10 0 13 -6 9 -16z m60 -66 c0 -46 4 -164 9 -263 13 -279 13
-270 -12 -273 -29 -4 -42 48 -19 83 17 26 23 179 8 189 -5 3 -24 -10 -42 -29
-31 -32 -32 -36 -26 -89 4 -30 14 -60 22 -67 8 -6 14 -29 14 -51 0 -37 -2 -39
-27 -36 l-28 3 0 110 0 110 43 43 44 43 -5 155 c-4 116 -2 154 7 154 9 0 12
-25 12 -82z m63 52 c-6 -16 -13 -30 -15 -30 -2 0 -4 14 -4 30 0 20 5 30 14 30
12 0 13 -6 5 -30z m-631 -305 c51 -56 52 -57 52 -120 0 -35 5 -67 10 -70 6 -3
10 -26 10 -51 0 -41 -2 -45 -22 -42 -23 3 -23 5 -19 111 l4 109 -51 51 -51 52
-1 130 c-3 177 3 190 10 23 l5 -137 53 -56z m902 275 c0 -18 -11 -42 -30 -64
-26 -30 -31 -44 -36 -111 -3 -44 -1 -82 5 -89 9 -10 21 -133 25 -251 1 -34 -2
-40 -19 -40 -22 0 -22 -2 -9 168 5 67 3 80 -12 91 -15 11 -16 26 -12 110 5 87
8 100 31 124 15 15 32 42 38 60 14 40 19 41 19 2z m-1820 5 c0 -8 -7 -15 -15
-15 -8 0 -15 7 -15 15 0 8 7 15 15 15 8 0 15 -7 15 -15z m661 -24 c-11 -20 2
-40 14 -21 17 27 22 -15 24 -211 1 -118 7 -221 12 -231 17 -32 7 -73 -18 -76
-28 -4 -41 36 -24 76 8 18 11 93 9 222 -3 179 -4 195 -20 192 -12 -2 -18 4
-18 17 0 27 21 79 27 64 2 -7 -1 -21 -6 -32z m1616 2 c-7 -39 -56 -98 -91
-109 -35 -11 -74 -45 -86 -75 -12 -27 -9 -189 6 -306 5 -49 4 -53 -14 -53 -12
0 -23 4 -26 9 -5 8 12 324 20 366 2 12 29 37 64 59 33 21 73 52 90 69 27 27
28 32 15 47 -16 18 -11 30 13 30 11 0 13 -8 9 -37z m-2377 6 c0 -11 -4 -17
-10 -14 -5 3 -10 13 -10 21 0 8 5 14 10 14 6 0 10 -9 10 -21z m1100 -9 l35
-29 3 -208 c3 -170 6 -210 18 -220 10 -7 14 -24 12 -45 -2 -28 -7 -33 -28 -33
l-25 0 0 250 0 249 -35 24 c-19 13 -36 27 -38 33 -7 18 24 8 58 -21z m310 20
c0 -5 -18 -19 -40 -30 l-40 -20 0 -255 0 -255 -25 0 c-23 0 -25 4 -25 43 0 31
5 45 20 55 19 11 20 23 20 214 l0 202 33 27 c33 29 57 37 57 19z m414 -7 c-3
-10 -10 -27 -15 -38 -9 -18 -7 -334 3 -465 3 -42 1 -45 -22 -45 -23 0 -25 3
-22 40 2 22 6 141 8 264 5 216 6 224 27 242 27 23 28 23 21 2z m636 6 c0 -12
-64 -79 -76 -79 -4 0 2 10 13 23 11 12 26 32 32 45 12 23 31 30 31 11z m-2369
-55 c23 -37 72 -74 100 -74 8 0 25 -10 38 -21 22 -20 23 -27 21 -168 -1 -80 1
-167 5 -193 6 -44 5 -48 -13 -48 -24 0 -33 22 -27 65 2 17 7 96 11 177 l7 148
-56 25 c-67 31 -156 125 -118 125 5 0 19 -16 32 -36z m-141 12 c0 -8 -5 -18
-11 -22 -14 -8 -33 11 -25 25 10 16 36 13 36 -3z m1723 8 c3 -4 0 -18 -7 -33
-20 -38 -19 -353 1 -398 21 -46 14 -87 -16 -91 -24 -4 -24 -3 -18 65 4 37 7
157 7 266 0 157 3 197 13 197 8 0 16 -3 20 -6z m855 -24 c-2 -24 -10 -34 -41
-51 -78 -40 -78 -40 -75 -254 3 -184 2 -190 -17 -190 -18 0 -20 6 -18 50 1 28
4 115 7 194 l4 144 44 43 c24 24 51 43 61 44 19 0 23 15 7 25 -13 8 -3 25 16
25 10 0 14 -9 12 -30z m-1079 -20 c-12 -22 -25 -43 -30 -46 -5 -3 -9 -15 -9
-27 0 -12 -7 -35 -15 -51 -12 -23 -14 -51 -10 -130 4 -56 10 -122 15 -148 12
-58 5 -80 -24 -76 -16 2 -22 11 -24 37 -2 18 1 38 7 44 7 7 11 58 11 126 0 64
5 134 11 156 6 22 13 52 16 67 5 27 50 87 65 88 4 0 -2 -18 -13 -40z m292
-396 c18 -34 8 -78 -19 -82 -30 -4 -37 17 -23 75 6 27 13 136 15 243 2 107 5
197 7 200 2 3 5 -89 6 -205 2 -126 7 -218 14 -231z m-1391 411 c0 -8 -6 -15
-14 -15 -9 0 -15 -20 -20 -61 -10 -97 -7 -327 4 -334 6 -3 10 -24 10 -46 0
-36 -2 -40 -22 -37 l-23 3 4 190 c2 105 7 198 12 207 5 9 9 32 9 50 0 32 14
58 32 58 4 0 8 -7 8 -15z m1775 3 c2 -7 5 -122 7 -256 4 -240 4 -243 -17 -240
-17 3 -20 9 -17 48 2 25 4 138 5 252 2 183 8 238 22 196z m-1404 -125 c0 -71
5 -166 10 -213 17 -154 17 -155 -11 -155 -23 0 -25 3 -21 45 1 25 2 136 1 248
-1 137 2 202 9 202 7 0 11 -45 12 -127z m314 107 c11 -17 53 -195 49 -202 -12
-19 -24 7 -36 79 -10 59 -18 82 -40 103 -15 15 -25 30 -22 33 7 6 43 -3 49
-13z m-1024 -34 c46 -38 56 -59 62 -138 3 -43 2 -78 -2 -78 -10 0 -21 59 -21
110 -1 42 -52 105 -94 116 -14 3 -29 11 -32 16 -11 18 59 -3 87 -26z m363
-157 c-6 -134 -4 -161 10 -189 9 -18 16 -48 16 -67 0 -29 -3 -33 -26 -33 l-27
0 6 68 c4 37 7 144 7 237 0 116 3 165 10 155 7 -9 8 -73 4 -171z m1573 3 c-8
-134 -7 -181 3 -211 16 -50 10 -75 -19 -79 -24 -4 -24 -3 -18 70 4 40 10 138
13 218 6 123 17 192 28 178 2 -1 -1 -81 -7 -176z m-1437 -7 c0 -143 3 -180 16
-200 20 -31 15 -79 -10 -83 -24 -5 -36 14 -30 52 2 17 4 115 4 219 0 117 4
187 10 187 6 0 10 -66 10 -175z m1829 152 c-8 -7 -28 -22 -43 -34 l-28 -22 3
-138 c1 -76 3 -160 3 -188 1 -44 -2 -50 -19 -50 -17 0 -20 6 -17 45 2 25 5
110 8 189 l5 144 36 34 c21 18 44 33 52 33 14 -1 14 -2 0 -13z m-1097 -392 c3
-37 1 -40 -22 -40 -21 0 -26 5 -28 32 -2 18 4 43 12 55 13 18 16 55 18 168 l2
145 7 -160 c4 -88 9 -178 11 -200z m-1070 214 c-2 -83 2 -127 14 -165 9 -28
14 -60 12 -70 -4 -22 -43 -31 -50 -12 -3 7 -1 76 4 153 5 77 6 157 3 178 -4
29 -2 38 7 34 10 -3 12 -33 10 -118z m2157 -84 c6 -11 14 -50 19 -88 9 -72 0
-96 -34 -83 -13 5 -15 15 -10 49 3 23 7 94 8 157 1 70 3 89 5 50 2 -36 7 -74
12 -85z m-2569 114 c0 -5 -7 -9 -15 -9 -15 0 -20 12 -9 23 8 8 24 -1 24 -14z
m178 -10 c31 -30 49 -66 39 -76 -3 -3 -15 14 -27 37 -16 32 -26 41 -41 37 -21
-6 -34 7 -24 23 10 16 19 12 53 -21z m2775 16 c1 -5 -6 -11 -15 -13 -11 -2
-18 3 -18 13 0 17 30 18 33 0z m-148 -9 c0 -5 -8 -10 -19 -12 -10 -1 -31 -15
-47 -30 -25 -24 -29 -35 -29 -83 1 -33 7 -64 15 -75 22 -29 19 -73 -5 -81 -37
-12 -42 2 -34 99 8 105 12 121 49 165 18 21 35 31 49 29 11 -2 21 -7 21 -12z
m-1945 -7 c0 -6 -9 -13 -20 -16 -18 -5 -20 -14 -20 -78 0 -45 6 -84 16 -103
22 -45 15 -77 -16 -77 l-25 0 4 125 c2 69 8 133 13 143 10 19 48 24 48 6z
m2200 -34 c0 -18 -15 -26 -34 -19 -19 7 -21 31 -3 37 18 6 37 -3 37 -18z
m-3155 6 c3 -5 1 -13 -5 -16 -15 -9 -43 3 -35 15 8 13 32 13 40 1z m3035 0 c0
-4 -20 -21 -45 -37 -44 -28 -60 -55 -57 -98 0 -11 8 -24 17 -28 20 -12 20 -77
-1 -85 -24 -9 -37 12 -36 61 0 25 1 62 1 81 1 39 28 71 84 99 38 18 37 18 37
7z m-2882 -33 c39 -24 44 -41 40 -138 -2 -59 -6 -75 -18 -75 -10 0 -16 13 -18
43 -2 33 0 42 12 42 21 0 21 58 0 88 -8 12 -33 31 -55 42 -21 11 -39 23 -39
26 0 9 42 -7 78 -28z m286 -65 c4 -31 11 -62 17 -69 6 -7 9 -28 7 -46 -2 -25
-8 -34 -24 -36 -12 -2 -24 3 -26 10 -8 20 4 208 12 203 4 -2 10 -30 14 -62z
m909 -11 c15 -132 15 -137 -13 -137 -21 0 -26 5 -28 34 -2 18 1 38 7 44 6 6
11 40 11 76 0 80 12 71 23 -17z m432 8 c4 -25 11 -54 17 -66 16 -34 6 -79 -17
-79 -19 0 -20 7 -22 109 -1 109 10 128 22 36z m-1755 35 c13 -14 29 -25 35
-25 17 0 49 -40 70 -87 14 -35 15 -45 5 -58 -18 -22 -27 -11 -35 46 -6 46 -12
54 -55 85 -26 19 -51 41 -54 49 -8 23 8 18 34 -10z m3108 15 c-2 -6 -26 -27
-53 -48 -49 -37 -50 -39 -53 -95 -2 -41 -7 -57 -17 -57 -31 0 -36 50 -9 102 8
15 38 45 67 67 52 41 72 50 65 31z m-2762 -53 c-5 -33 -3 -47 9 -57 17 -14 21
-75 5 -85 -6 -3 -19 -3 -30 0 -19 6 -20 12 -14 83 6 68 16 102 31 102 3 0 2
-20 -1 -43z m-74 -12 c-2 -15 4 -35 13 -45 24 -27 16 -84 -12 -88 -26 -4 -29
8 -25 100 3 47 7 68 15 65 7 -2 11 -16 9 -32z m2578 -22 c26 -59 24 -108 -5
-108 -18 0 -20 8 -23 78 -2 42 -1 77 2 77 3 0 14 -21 26 -47z m-2628 -48 c3
-54 1 -60 -17 -60 -26 0 -30 26 -15 94 15 66 27 53 32 -34z m2992 -23 c-15
-20 -44 -55 -66 -78 -26 -28 -38 -48 -36 -64 3 -21 -2 -25 -37 -31 -44 -8 -59
0 -53 27 2 12 14 21 34 24 29 5 80 55 154 151 34 44 38 17 4 -29z m-3479 30
c0 -18 -20 -15 -23 4 -3 10 1 15 10 12 7 -3 13 -10 13 -16z m65 -2 c0 -21 -15
-27 -25 -10 -7 12 2 30 16 30 5 0 9 -9 9 -20z m98 -51 c29 -38 52 -75 49 -82
-2 -6 -12 2 -23 17 -10 15 -36 48 -56 74 -21 26 -38 50 -38 54 0 20 20 2 68
-63z m3384 29 c-4 -18 -6 -19 -14 -4 -12 22 -1 57 11 37 5 -7 6 -22 3 -33z
m76 20 c-3 -7 -11 -13 -18 -13 -7 0 -15 6 -17 13 -3 7 4 12 17 12 13 0 20 -5
18 -12z m-3537 -123 l43 -75 48 0 c26 0 48 -4 48 -10 0 -15 -83 -12 -106 5
-12 8 -35 44 -52 80 -31 65 -47 79 -58 50 -8 -21 -36 -19 -32 2 3 16 44 34 59
27 4 -2 26 -37 50 -79z m3533 67 c8 -13 -11 -35 -23 -28 -16 10 -14 36 3 36 8
0 17 -4 20 -8z m-91 -84 c-47 -66 -49 -68 -98 -67 l-40 1 40 10 c30 8 49 22
78 59 50 66 67 63 20 -3z m-3218 -33 c0 -15 -8 -21 -34 -23 -38 -4 -57 9 -47
33 4 12 16 15 43 13 30 -2 38 -7 38 -23z m3299 -14 c8 -12 -46 -92 -84 -124
-27 -23 -39 -27 -69 -22 -23 3 -46 0 -65 -10 -15 -8 -46 -15 -67 -15 -35 0
-39 3 -39 26 l0 25 103 -7 104 -7 44 52 c24 28 45 57 45 64 3 25 4 27 13 27 6
0 12 -4 15 -9z m-3584 -18 c0 -19 32 -77 56 -101 14 -14 84 -14 209 1 15 1 21
-5 23 -25 3 -27 1 -28 -41 -28 -27 0 -49 6 -57 15 -9 10 -32 15 -76 15 -62 0
-63 0 -96 43 -33 41 -58 82 -58 92 0 3 9 5 20 5 12 0 20 -7 20 -17z m290 -48
c0 -23 -4 -25 -44 -25 -46 0 -62 11 -52 35 4 10 20 15 51 15 41 0 45 -2 45
-25z m3068 -2 c3 -20 -1 -23 -32 -24 -20 -1 -42 -2 -48 -3 -7 -1 -14 12 -16
27 -3 28 -3 28 45 25 41 -3 48 -6 51 -25z m411 -37 c9 -10 3 -25 -25 -67 -20
-30 -41 -57 -47 -60 -7 -4 -108 -9 -225 -11 l-213 -5 3 26 c3 22 9 26 39 29
23 2 40 -2 49 -12 10 -13 40 -16 171 -16 l158 0 31 33 c22 23 29 38 25 55 -9
38 11 55 34 28z m-3948 -36 c4 -20 21 -46 38 -62 l31 -28 148 7 c109 5 150 10
157 20 15 20 85 13 99 -10 8 -13 8 -19 -1 -25 -6 -4 -106 -6 -223 -6 -236 2
-227 -1 -251 77 -8 25 -18 37 -31 37 -10 0 -18 7 -18 16 0 10 7 14 22 12 16
-2 24 -12 29 -38z m4024 -30 c-5 -8 -11 -8 -17 -2 -6 6 -7 16 -3 22 5 8 11 8
17 2 6 -6 7 -16 3 -22z m-4046 -44 c17 -22 29 -42 25 -45 -6 -6 -54 43 -73 75
-8 14 -13 16 -19 7 -5 -8 -12 -9 -22 -2 -13 8 -13 10 -1 18 21 13 53 -6 90
-53z m3972 2 c-22 -23 -42 -40 -46 -37 -7 8 60 79 75 79 6 0 -7 -19 -29 -42z
m-3476 -79 c10 -30 -11 -41 -60 -33 -22 4 -156 7 -298 8 -243 1 -257 2 -257
20 0 14 5 17 23 13 44 -12 479 -9 490 2 6 6 30 11 53 11 35 0 44 -4 49 -21z
m2695 6 c17 -9 39 -33 50 -55 20 -39 20 -53 18 -833 l-3 -793 -25 -31 c-14
-17 -33 -36 -43 -42 -14 -9 -137 -12 -463 -11 -398 0 -444 -1 -444 -15 0 -19
73 -244 89 -274 11 -19 20 -21 100 -21 106 0 147 -12 167 -51 12 -25 13 -34 2
-57 l-13 -27 -644 -3 c-589 -2 -646 -1 -663 14 -22 21 -23 47 -2 79 22 34 38
39 152 45 l103 5 23 60 c27 70 76 222 76 236 0 5 -178 9 -449 9 l-448 0 -31
28 c-16 15 -35 37 -41 49 -8 15 -11 257 -11 816 l0 794 23 34 c12 18 34 39 47
46 20 10 283 13 1213 13 1044 0 1192 -2 1217 -15z m355 5 c5 -7 93 -10 258 -9
170 1 252 -2 255 -10 2 -7 -77 -12 -250 -14 -139 -3 -270 -8 -291 -12 -46 -9
-72 7 -56 36 11 21 73 27 84 9z m-3715 -35 c0 -8 -7 -15 -15 -15 -8 0 -15 7
-15 15 0 8 7 15 15 15 8 0 15 -7 15 -15z m4316 0 c8 -21 -6 -41 -17 -24 -12
19 -11 39 1 39 6 0 13 -7 16 -15z m-4118 -35 l130 0 43 -45 43 -45 71 0 c39 0
76 5 82 11 5 5 30 9 54 7 36 -2 44 -7 44 -23 0 -19 -6 -20 -130 -17 l-130 4
-45 44 -46 44 -126 0 c-135 0 -158 4 -158 26 0 11 4 12 19 4 11 -5 78 -10 149
-10z m4062 10 c0 -22 -46 -30 -168 -30 l-130 0 -38 -44 -39 -45 -130 -3 c-124
-3 -130 -2 -130 17 0 17 8 21 45 23 31 2 48 -1 56 -12 8 -12 26 -15 76 -12 63
3 67 5 110 50 l45 46 131 0 c81 0 132 4 132 10 0 6 9 10 20 10 11 0 20 -4 20
-10z m-3820 -20 c0 -6 26 -10 59 -10 33 0 63 5 66 10 10 17 95 12 102 -6 11
-30 -11 -35 -135 -28 -110 6 -122 9 -122 26 0 10 7 18 15 18 8 0 15 -4 15 -10z
m3286 -1 c5 -8 29 -10 76 -6 51 4 68 3 65 -6 -5 -16 -226 -32 -240 -18 -5 5
-7 17 -4 25 8 19 92 23 103 5z m604 -54 c0 -23 -22 -29 -37 -10 -10 14 -10 21
-1 26 15 10 38 0 38 -16z m-4342 3 c-6 -18 -28 -21 -28 -4 0 9 7 16 16 16 9 0
14 -5 12 -12z m88 -2 c18 -14 18 -15 -9 -21 -30 -8 -54 6 -43 24 10 15 28 14
52 -3z m4188 -3 c3 -10 9 -24 12 -30 3 -8 -1 -13 -10 -13 -9 0 -16 7 -16 15 0
9 -9 15 -25 15 -29 0 -34 16 -7 23 32 9 40 7 46 -10z m-3960 -5 c6 -7 22 -28
35 -47 l24 -34 143 5 c78 3 148 2 155 -2 6 -5 9 -15 6 -24 -7 -18 -76 -23
-105 -7 -9 5 -61 11 -115 14 -84 4 -101 8 -122 27 -13 12 -25 32 -27 44 -3 18
-12 22 -63 27 l-60 6 58 1 c36 1 63 -3 71 -10z m3706 -4 c0 -4 -16 -26 -35
-50 l-35 -43 -103 -5 c-56 -2 -124 -8 -150 -11 -54 -8 -79 4 -58 29 10 11 38
13 155 9 l143 -6 33 42 c30 37 50 51 50 35z m-3833 -127 l77 -80 203 6 c112 3
205 1 208 -3 3 -5 2 -15 -1 -24 -7 -19 -84 -22 -101 -5 -8 8 -65 10 -187 7
-97 -2 -176 -1 -176 3 0 4 8 9 18 11 13 3 -1 21 -56 76 -71 70 -75 72 -123 72
-31 0 -48 -4 -44 -10 3 -5 -3 -10 -14 -10 -20 0 -28 19 -14 34 4 4 35 6 70 5
l62 -2 78 -80z m4105 70 c25 -1 41 -6 38 -12 -3 -5 -14 -9 -25 -7 -35 4 -98 1
-111 -6 -36 -20 -103 -94 -97 -107 3 -9 0 -22 -7 -30 -10 -12 -40 -13 -179 -8
-122 4 -170 3 -175 -5 -4 -7 -27 -12 -52 -12 -37 0 -44 3 -44 20 0 15 7 20 28
21 67 3 320 -3 349 -8 25 -4 35 0 50 18 80 99 143 152 169 142 7 -2 32 -5 56
-6z m-3627 -80 c28 -21 9 -37 -46 -37 -41 0 -49 3 -49 18 0 10 3 22 7 25 11
12 68 8 88 -6z m3072 -13 c8 -22 -15 -35 -57 -32 -28 2 -36 8 -38 26 -3 20 1
22 43 22 33 0 47 -5 52 -16z m603 -54 c0 -18 -5 -20 -39 -14 -27 4 -46 1 -64
-10 -14 -10 -28 -13 -31 -8 -5 9 5 14 79 40 45 15 55 14 55 -8z m-4215 -11
c13 -6 -9 -8 -60 -7 -86 2 -98 5 -90 18 6 9 121 1 150 -11z m-27 -41 c8 -8 91
-12 294 -12 276 -1 283 -1 283 -21 0 -16 -8 -21 -44 -23 -28 -2 -49 2 -60 12
-14 13 -51 15 -246 12 -229 -4 -255 -1 -255 30 0 17 12 18 28 2z m-74 -13
c-25 -19 -44 -19 -44 0 0 10 10 15 32 15 30 0 31 -1 12 -15z m4214 -2 c-3 -17
-24 -18 -243 -20 -148 -2 -248 -7 -261 -14 -34 -17 -88 -8 -92 17 -3 20 -1 20
278 16 201 -3 285 -1 293 7 16 16 29 13 25 -6z m92 -3 c-12 -23 -30 -27 -30
-7 0 17 10 27 27 27 11 0 11 -5 3 -20z m-4245 -70 c4 -6 97 -10 245 -10 148 0
241 4 245 10 10 16 92 12 99 -5 16 -44 -50 -62 -110 -30 -26 13 -30 13 -40 0
-12 -17 -40 -20 -46 -6 -3 10 -36 15 -75 13 -16 -2 -23 -8 -23 -22 0 -11 -5
-20 -11 -20 -6 0 -13 9 -16 20 -5 19 -14 20 -127 21 -128 1 -167 7 -174 27 -4
14 24 16 33 2z m3655 -5 c19 -22 0 -37 -50 -41 -43 -3 -58 11 -46 41 7 20 79
20 96 0z m520 4 c0 -24 -70 -39 -184 -39 -95 0 -115 -3 -120 -16 -3 -9 -4 -20
0 -25 3 -5 59 -9 124 -9 144 0 160 -4 124 -33 -21 -16 -27 -18 -35 -6 -6 11
-53 15 -220 19 -116 3 -213 2 -216 -2 -2 -5 -24 -8 -49 -8 -44 0 -45 1 -42 28
2 23 8 28 36 30 21 2 41 -3 52 -13 15 -14 35 -16 104 -14 46 2 87 7 90 10 4 3
2 18 -3 33 -12 31 -54 36 -83 9 -14 -12 -24 -14 -35 -7 -39 24 -6 29 190 26
171 -3 205 -1 222 12 23 18 45 21 45 5z m-3586 -85 c11 -29 -14 -47 -53 -38
-20 4 -151 8 -291 8 -160 1 -255 5 -255 11 0 6 92 11 245 13 143 1 248 6 254
12 17 17 93 12 100 -6z m3061 -74 c9 -8 97 -11 272 -9 212 1 258 -1 261 -12 2
-12 -50 -14 -312 -14 -286 0 -315 2 -319 17 -3 9 0 21 6 27 12 12 74 6 92 -9z
m-3065 -13 l0 -24 -222 4 c-123 2 -260 5 -305 6 -63 3 -84 0 -88 -10 -6 -18
-25 -7 -25 15 0 16 22 17 266 14 181 -2 270 0 277 7 6 6 30 11 54 11 38 0 43
-2 43 -23z m0 -57 c11 -7 12 -14 4 -27 -10 -16 -35 -17 -320 -14 -287 2 -351
8 -317 29 6 4 53 4 105 0 51 -3 166 -7 256 -7 133 -1 166 2 178 14 17 17 71
20 94 5z m3065 -6 c15 -15 43 -16 277 -10 230 6 259 5 256 -9 -3 -13 -44 -15
-311 -17 -319 -1 -335 0 -320 39 7 19 78 17 98 -3z m-3311 -78 c-2 -14 7 -16
65 -10 36 3 75 10 87 15 11 6 38 9 60 7 31 -2 39 -7 39 -23 0 -19 -6 -20 -135
-17 -74 2 -139 7 -144 12 -12 12 1 43 17 37 6 -2 11 -12 11 -21z m3482 -11
c-4 -11 -24 -15 -83 -16 -43 0 -99 -4 -126 -8 -51 -8 -73 3 -61 33 7 18 88 23
99 6 8 -14 127 -9 150 7 21 14 31 4 21 -22z m-3508 -33 c36 -39 40 -41 97 -40
36 1 67 7 76 15 11 9 34 13 60 11 38 -3 44 -6 47 -27 l4 -24 -84 6 c-45 4
-105 7 -131 7 -42 0 -53 5 -90 40 l-42 41 -135 -3 c-74 -2 -141 -5 -149 -8 -8
-3 -16 2 -18 10 -3 13 20 15 162 14 l165 -1 38 -41z m3872 38 c0 -6 -56 -10
-148 -10 l-149 0 -37 -40 c-36 -40 -37 -40 -110 -40 -40 0 -87 -5 -105 -11
-46 -16 -81 -5 -81 26 0 23 4 25 44 25 25 0 48 -4 51 -10 7 -12 165 -14 165
-2 0 4 13 22 29 40 l30 32 155 0 c97 0 156 -4 156 -10z m-3935 -96 l46 -44 89
0 c49 0 101 5 117 11 15 6 43 8 61 4 27 -5 33 -10 30 -28 -3 -25 -6 -25 -204
-10 -103 8 -106 9 -168 66 -31 28 -32 28 -148 26 -65 -1 -121 0 -124 4 -17 17
16 22 130 19 l125 -3 46 -45z m3935 40 c0 -14 -13 -16 -106 -11 l-106 4 -61
-48 -60 -49 -98 0 c-54 0 -101 -4 -104 -10 -3 -5 -26 -10 -51 -10 -48 0 -66
18 -44 45 14 17 75 20 85 5 3 -6 50 -10 106 -10 l101 0 52 45 52 44 105 4 c57
1 110 4 117 5 6 1 12 -5 12 -14z m-4076 -79 c37 -33 38 -35 15 -35 -21 0 -79
47 -79 64 0 15 29 2 64 -29z m3974 18 c2 -7 -1 -13 -8 -13 -6 0 -27 -11 -47
-25 -49 -32 -54 -24 -12 18 35 35 59 42 67 20z m-4038 -48 c0 -50 28 -56 246
-51 110 2 220 7 246 11 39 6 49 4 54 -9 3 -9 1 -23 -6 -31 -14 -17 -85 -21
-95 -5 -4 6 -86 10 -214 10 -202 0 -208 1 -228 23 -27 29 -44 63 -36 71 15 14
33 4 33 -19z m4084 3 c-4 -7 -18 -27 -30 -45 l-24 -32 -222 -5 c-123 -2 -239
-6 -258 -8 -32 -3 -35 -1 -35 22 0 23 3 25 45 22 25 -2 140 -4 255 -5 l210 -2
15 32 c9 19 23 33 33 33 12 0 16 -4 11 -12z m-3539 -138 c10 -31 -2 -40 -51
-40 -30 0 -46 5 -50 15 -12 31 4 45 50 45 36 0 46 -4 51 -20z m3061 5 c10 -25
-16 -45 -57 -45 -37 0 -39 2 -39 30 0 29 2 30 45 30 32 0 47 -5 51 -15z
m-3067 -78 c8 -10 7 -18 -3 -32 -10 -15 -21 -17 -57 -12 -24 4 -136 8 -248 9
-202 3 -203 3 -222 -21 -10 -13 -19 -29 -19 -37 0 -8 -7 -14 -15 -14 -23 0
-18 22 16 63 l32 38 204 -2 c143 -1 207 1 216 10 15 15 82 14 96 -2z m3273 -6
c212 -6 228 -7 243 -26 29 -38 37 -57 28 -66 -17 -17 -40 0 -36 25 3 13 -1 27
-7 31 -14 9 -411 8 -482 -1 -46 -6 -48 -5 -48 19 0 28 21 39 55 29 11 -3 122
-8 247 -11z m-3672 -61 c0 -9 -31 -30 -44 -30 -4 0 -1 9 6 20 13 21 38 27 38
10z m3895 -57 c2 -8 -3 -13 -14 -13 -10 0 -22 7 -25 15 -3 9 -22 23 -41 31
-20 8 -33 19 -30 24 7 12 102 -38 110 -57z m-3497 30 c-3 -26 -6 -28 -48 -25
-25 1 -87 5 -139 8 l-94 5 -44 -43 -44 -43 -132 -6 c-130 -5 -162 0 -140 22 7
7 18 8 29 2 11 -5 67 -7 126 -4 l108 6 45 43 45 42 94 0 c53 0 98 4 101 10 3
6 26 10 51 10 44 0 45 -1 42 -27z m3061 18 c10 -6 60 -12 111 -15 93 -4 93 -5
134 -45 l42 -41 127 0 c110 0 127 -2 127 -16 0 -12 -6 -15 -22 -10 -13 3 -71
6 -131 6 l-107 0 -43 39 -43 40 -95 2 c-51 0 -113 -2 -136 -6 -45 -7 -62 6
-49 40 6 17 57 20 85 6z m-3549 -50 c-12 -24 -40 -28 -40 -7 0 18 44 50 48 37
2 -6 -2 -19 -8 -30z m497 -37 c3 -9 0 -20 -8 -25 -19 -12 -86 -11 -94 1 -3 6
-39 10 -80 10 -65 0 -76 -3 -89 -22 -30 -43 -22 -48 73 -48 70 0 90 3 95 15 3
10 19 15 44 15 47 0 68 -18 49 -43 -11 -15 -30 -15 -202 -6 -104 6 -242 8
-307 4 -82 -4 -118 -3 -123 5 -10 17 11 35 27 24 7 -6 73 -8 153 -6 l140 4 28
39 28 38 82 4 c45 1 104 4 130 5 36 1 49 -2 54 -14z m3236 -25 c15 -16 27 -35
27 -42 0 -10 37 -12 165 -9 147 4 165 3 165 -12 0 -14 -21 -16 -180 -16 -102
0 -180 4 -180 9 0 5 4 11 9 13 5 2 -1 16 -14 32 -21 27 -28 29 -87 27 -35 -1
-88 -5 -116 -10 -44 -7 -54 -5 -61 8 -20 38 -4 42 123 36 117 -7 122 -8 149
-36z m-188 -39 c3 -5 44 -10 91 -10 46 0 84 -4 84 -9 0 -5 -37 -12 -82 -14
-46 -3 -100 -8 -121 -12 -46 -9 -72 7 -56 36 11 21 73 27 84 9z m-3057 -94 l4
-29 -94 8 c-80 7 -342 12 -418 8 -77 -4 -119 1 -124 14 -8 19 15 26 46 14 34
-13 488 -15 488 -2 0 10 40 19 75 17 14 -1 21 -9 23 -30z m3062 19 c11 -14 46
-15 244 -12 127 2 243 7 259 11 21 7 27 5 27 -8 0 -14 -18 -16 -142 -17 -278
-3 -378 -6 -385 -13 -10 -9 -91 -7 -97 3 -4 5 -3 16 0 25 5 13 18 18 70 25 6
0 17 -6 24 -14z m450 -81 c0 -26 -30 -29 -227 -24 -150 4 -202 2 -214 -7 -17
-14 -77 -17 -95 -5 -8 5 -8 15 -3 31 8 20 14 22 42 16 17 -3 126 -8 241 -11
178 -4 211 -2 218 10 10 18 38 10 38 -10z m70 12 c0 -8 -5 -18 -11 -22 -14 -8
-33 11 -25 25 10 16 36 13 36 -3z m-4166 -2 c25 -9 19 -24 -9 -24 -16 0 -25 6
-25 15 0 16 9 19 34 9z m441 -13 c3 -6 -14 -12 -37 -14 -38 -3 -37 -4 13 -5
43 -2 58 2 63 13 8 22 104 21 113 -1 3 -8 2 -19 -3 -24 -5 -5 -73 -6 -154 -3
-86 4 -135 10 -120 14 39 11 -146 10 -215 -1 -57 -9 -74 -4 -75 23 0 11 408 9
415 -2z m145 -76 c32 -38 -55 -62 -105 -29 -22 14 -25 14 -44 -5 -25 -25 -41
-27 -41 -6 0 11 -12 15 -45 15 -25 0 -45 -4 -45 -10 0 -5 -9 -10 -20 -10 -11
0 -20 5 -20 11 0 8 -42 10 -145 7 -111 -3 -145 -1 -145 8 0 7 13 13 33 13 17
0 132 0 254 0 143 0 224 4 228 11 10 16 81 12 95 -5z m3309 4 c172 0 212 -3
222 -15 15 -19 5 -29 -18 -18 -30 13 -364 14 -362 0 3 -25 -2 -36 -16 -36 -8
0 -15 9 -15 20 0 23 -31 27 -75 10 -35 -13 -75 -3 -75 19 0 29 12 33 72 26 32
-3 152 -6 267 -6z m-3309 -84 c10 -12 10 -18 -1 -31 -10 -12 -22 -14 -53 -8
-23 4 -171 8 -330 10 -188 2 -292 6 -299 13 -6 6 -9 11 -6 11 2 0 133 1 292 2
158 1 293 6 300 10 21 13 84 9 97 -7z m3065 6 c8 -14 552 -15 560 -1 11 18 26
10 23 -12 -2 -16 -9 -22 -23 -21 -45 4 -554 1 -599 -4 -50 -5 -70 6 -59 34 6
15 88 18 98 4z m-3719 -71 c13 -13 537 -15 561 -2 29 15 90 3 96 -18 3 -11 2
-21 -1 -24 -9 -10 -97 -7 -108 3 -5 5 -56 6 -119 1 -61 -4 -114 -3 -120 1 -5
5 -82 9 -170 9 -89 0 -164 3 -168 6 -7 7 2 34 12 34 4 0 12 -5 17 -10z m3718
-4 c15 -9 38 -12 69 -9 33 4 47 2 47 -7 0 -13 75 -10 185 8 33 6 111 11 173
11 93 1 112 -1 112 -14 0 -12 -10 -14 -54 -9 -33 4 -56 2 -60 -4 -9 -15 60
-55 83 -47 22 7 33 -5 22 -23 -10 -17 -93 18 -114 48 -14 20 -25 22 -104 24
-48 0 -95 -3 -103 -8 -8 -5 -90 -10 -182 -11 -165 -1 -168 0 -168 20 0 12 2
24 5 26 11 11 70 8 89 -5z m-3578 -46 c6 0 29 -14 50 -31 32 -25 44 -29 69
-23 28 6 263 23 349 25 47 1 65 -13 45 -37 -10 -13 -23 -15 -59 -9 -25 4 -123
6 -218 5 l-172 -2 -35 31 c-40 35 -53 37 -81 16 -10 -8 -31 -15 -46 -15 -15 0
-30 -4 -33 -10 -10 -15 -35 -12 -35 5 0 10 10 15 31 15 17 0 43 9 57 21 16 12
34 18 47 15 11 -3 25 -6 31 -6z m4014 -10 c0 -5 -7 -10 -15 -10 -8 0 -25 -10
-37 -22 -22 -22 -31 -23 -203 -24 -99 -1 -200 -3 -225 -5 -42 -4 -45 -3 -45
21 0 30 30 38 84 21 20 -5 104 -12 188 -15 147 -4 153 -4 185 19 35 24 68 32
68 15z m-441 -94 c6 -4 103 -7 215 -6 l205 1 37 -46 c29 -34 45 -45 66 -45 18
0 28 5 28 15 0 8 7 15 15 15 8 0 15 -9 15 -19 0 -18 -14 -19 -332 -23 -183 -2
-337 -1 -341 2 -4 4 -5 14 -1 23 7 19 82 24 100 8 10 -11 444 -20 444 -10 0 4
-9 18 -21 33 l-20 26 -199 0 c-122 0 -201 -4 -205 -10 -9 -15 -92 -13 -98 3
-9 26 13 47 47 44 18 -2 38 -7 45 -11z m-3055 -5 c4 -5 3 -16 0 -25 -7 -18
-98 -23 -109 -6 -4 6 -82 10 -201 10 -165 0 -196 -2 -200 -15 -10 -24 -45 -40
-55 -24 -10 17 -2 29 20 29 10 0 24 7 32 16 11 13 41 15 206 13 106 -1 196 1
200 4 10 10 101 8 107 -2z m-576 -13 c-6 -18 -98 -40 -98 -23 0 6 15 17 33 23
45 14 69 14 65 0z m4175 6 c43 -8 50 -24 10 -24 -38 0 -73 10 -73 21 0 11 12
11 63 3z m-3980 -80 c160 4 275 10 281 16 13 13 96 13 98 0 0 -5 1 -15 2 -22
1 -13 -673 -18 -681 -5 -3 4 -2 16 2 25 6 16 7 16 17 -1 9 -18 25 -18 281 -13z
m-283 -54 c0 -15 518 -13 573 2 53 14 100 4 95 -20 -5 -26 -52 -38 -91 -24
-23 8 -121 12 -314 12 -232 0 -282 2 -286 14 -6 15 1 26 15 26 4 0 8 -4 8 -10z
m3990 -9 c214 -5 277 -3 286 7 17 18 34 15 34 -8 0 -25 5 -25 -325 -26 -143 0
-278 -4 -301 -8 -31 -6 -43 -4 -53 8 -23 27 4 49 48 41 20 -4 160 -10 311 -14z
m-3335 -81 c0 -22 -5 -25 -39 -28 -21 -2 -43 1 -49 7 -7 7 -92 11 -244 11
-200 0 -233 -2 -233 -15 0 -17 -26 -20 -35 -5 -4 6 -1 17 5 25 10 12 55 15
256 15 159 0 245 4 249 11 4 5 26 9 48 7 37 -3 42 -6 42 -28z m3060 20 c4 -6
98 -10 249 -10 187 0 246 -3 261 -13 10 -8 15 -19 11 -25 -10 -17 -36 -15 -36
3 0 14 -29 15 -237 12 -131 -3 -256 -8 -279 -12 -31 -5 -43 -3 -53 9 -11 13
-11 19 -1 31 14 17 75 20 85 5z m-3055 -95 c0 -23 -3 -25 -49 -25 -28 0 -53 5
-56 10 -4 6 -73 10 -174 10 l-167 0 -22 -30 c-14 -19 -32 -30 -46 -30 -16 0
-26 -7 -29 -21 -7 -25 -27 -16 -27 12 0 14 7 19 25 19 14 0 37 14 58 35 l34
35 184 3 c101 1 203 3 227 5 39 2 42 0 42 -23z m3450 -21 c23 -22 46 -34 63
-34 20 0 27 -5 27 -20 0 -11 -5 -20 -10 -20 -15 0 -60 29 -93 59 -28 25 -32
26 -194 29 -108 2 -169 0 -176 -7 -6 -6 -30 -11 -54 -11 -35 0 -43 3 -43 18 0
10 2 21 5 23 2 3 102 3 222 1 l218 -4 35 -34z m-3455 -54 c0 -22 -5 -25 -41
-28 -27 -2 -45 2 -54 13 -10 12 -37 15 -124 17 l-111 2 117 5 c64 3 120 10
124 14 5 4 26 7 49 5 35 -3 40 -6 40 -28z m3071 21 c5 -5 20 -11 34 -14 l25
-4 -26 -2 c-15 0 -32 -8 -39 -16 -7 -8 -28 -15 -47 -15 -35 0 -50 17 -39 45 6
17 76 21 92 6z m-3508 -28 c-14 -16 -28 -36 -31 -45 -7 -20 -22 -23 -32 -8 -8
12 55 80 74 80 10 0 7 -9 -11 -27z m3866 21 c9 -3 16 -12 16 -20 0 -7 10 -18
21 -25 20 -10 20 -12 5 -27 -15 -15 -18 -15 -26 -2 -5 8 -8 21 -5 28 2 7 -4
18 -15 24 -30 19 -27 34 4 22z m-3426 -91 c3 -21 0 -23 -47 -23 -28 0 -51 5
-51 10 0 6 -28 10 -65 10 -57 0 -69 -3 -90 -25 -14 -13 -25 -33 -25 -45 0 -11
-7 -20 -15 -20 -25 0 -16 33 20 72 32 35 39 37 102 41 37 2 91 3 118 3 44 -1
50 -4 53 -23z m3237 -14 c25 -23 45 -50 45 -60 0 -27 -19 -23 -30 5 -5 13 -21
36 -37 50 -22 21 -38 26 -79 26 -34 0 -56 -5 -64 -15 -8 -9 -30 -15 -56 -15
-40 0 -44 2 -44 25 l0 25 110 0 110 0 45 -41z m-3245 -38 c6 0 10 -10 10 -20
0 -14 -9 -20 -37 -24 -21 -2 -46 0 -56 5 -10 5 -36 7 -58 3 -47 -8 -84 -50
-94 -107 -8 -41 -16 -46 -35 -23 -9 11 -9 15 -1 15 6 0 16 12 22 28 5 15 22
44 36 65 23 32 31 37 67 37 22 0 48 6 57 13 14 10 48 13 89 8z m3122 -7 c50
-6 83 -34 120 -103 12 -22 24 -31 43 -31 14 0 28 -7 32 -15 9 -24 -7 -32 -22
-12 -7 10 -19 15 -29 11 -11 -4 -21 4 -33 27 -10 19 -33 49 -50 67 l-33 34
-84 -7 c-88 -8 -110 1 -85 31 10 12 23 14 53 9 23 -3 62 -8 88 -11z m-3112
-69 c24 -29 4 -45 -53 -45 -50 0 -56 -2 -85 -39 -18 -22 -32 -45 -32 -51 0 -6
-12 -15 -26 -20 -32 -13 -44 -13 -44 0 0 6 7 10 15 10 8 0 27 16 42 36 44 55
96 110 113 117 28 10 57 7 70 -8z m3096 -42 c68 -79 96 -121 89 -132 -10 -17
-35 0 -35 23 0 13 -19 42 -44 69 -41 42 -48 46 -84 41 -43 -5 -67 12 -56 40 4
11 18 16 44 16 33 0 43 -7 86 -57z m-2511 -72 c-4 -25 -8 -121 -9 -213 -1
-130 -3 -162 -12 -145 -16 31 -25 405 -10 410 29 10 38 -5 31 -52z m205 4 c0
-24 -4 -46 -9 -49 -5 -3 -12 -132 -16 -286 -5 -202 -11 -280 -19 -277 -6 2 -9
13 -6 23 2 10 5 157 5 326 0 265 2 308 15 311 25 6 30 -2 30 -48z m68 11 c2
-22 -2 -49 -8 -61 -6 -11 -10 -47 -8 -80 3 -54 5 -59 31 -66 l27 -7 0 73 c0
41 -4 77 -10 80 -5 3 -10 26 -10 50 0 31 5 45 17 49 9 4 20 3 25 -2 4 -4 3
-109 -4 -232 l-11 -225 -43 -45 c-38 -39 -44 -52 -44 -88 0 -23 5 -42 10 -42
6 0 10 -7 10 -16 0 -12 -6 -15 -22 -10 -13 3 -26 6 -30 6 -4 0 -2 14 4 30 5
17 8 40 4 52 -4 17 6 33 45 71 l50 48 -3 97 c-2 78 -6 97 -18 97 -11 0 -16
-14 -18 -52 -2 -35 -7 -53 -16 -53 -22 0 -27 13 -10 31 14 16 15 27 6 81 -15
87 -25 235 -17 248 15 25 40 5 43 -34z m134 -16 c-2 -30 -5 -142 -8 -248 -6
-243 -25 -254 -24 -14 1 92 -2 195 -5 229 -9 71 -2 96 22 91 15 -3 17 -12 15
-58z m69 -225 c-2 -154 -7 -287 -12 -295 -6 -10 -8 -4 -9 23 0 26 -4 37 -15
37 -20 0 -19 17 0 28 14 7 15 34 12 193 -3 101 -8 203 -12 227 -9 51 -1 75 22
70 17 -3 18 -23 14 -283z m77 235 c2 -23 -2 -48 -7 -53 -15 -15 -15 -187 0
-187 6 0 19 5 30 10 16 9 19 22 19 95 0 46 -4 87 -10 90 -10 6 -14 78 -4 87 3
3 14 3 25 1 19 -5 20 -11 13 -137 -7 -139 -14 -159 -60 -170 l-25 -7 7 -132
c6 -118 5 -135 -10 -150 -10 -9 -22 -15 -27 -12 -14 9 -11 35 4 33 9 -2 12 47
11 222 -1 124 -5 251 -9 283 -6 46 -5 61 6 68 24 15 34 4 37 -41z m-1438 31
c0 -13 -26 -32 -33 -24 -14 13 -6 33 13 33 11 0 20 -4 20 -9z m408 -29 c2 -24
-1 -34 -15 -39 -9 -4 -33 -23 -53 -42 -34 -34 -139 -105 -146 -98 -6 6 12 23
56 52 84 54 100 74 100 123 0 41 1 43 28 40 22 -2 28 -8 30 -36z m62 -12 c0
-27 -4 -50 -10 -50 -5 0 -10 -16 -10 -35 0 -44 -31 -77 -95 -105 -44 -19 -55
-33 -35 -45 13 -8 3 -25 -16 -25 -9 0 -14 11 -14 30 0 27 6 33 45 50 25 11 57
32 70 46 22 24 25 36 25 105 0 72 2 79 20 79 17 0 20 -7 20 -50z m76 23 c4
-14 2 -40 -5 -58 -6 -17 -11 -62 -11 -99 0 -61 -3 -70 -29 -97 -31 -31 -71
-39 -71 -14 0 8 7 15 15 15 8 0 15 -6 15 -12 0 -7 12 1 26 17 25 30 25 32 19
153 -6 118 -5 122 14 122 14 0 23 -9 27 -27z m60 -25 c-3 -29 -8 -66 -10 -83
-3 -16 -5 -34 -5 -39 -2 -23 -12 6 -21 60 -13 75 -5 114 22 114 18 0 19 -5 14
-52z m77 17 c-2 -16 -5 -63 -7 -103 -3 -59 -8 -77 -25 -93 -18 -17 -21 -31
-21 -91 0 -70 -1 -73 -37 -110 -21 -22 -47 -38 -60 -38 -27 0 -47 -32 -31 -48
9 -9 9 -15 0 -24 -19 -19 -30 2 -25 45 5 32 9 37 32 37 17 0 40 13 64 36 36
35 37 38 37 109 0 59 4 77 21 99 22 27 22 51 6 161 -6 40 2 57 27 53 17 -2 20
-9 19 -33z m67 -15 c0 -27 -4 -50 -10 -50 -6 0 -10 -40 -10 -99 0 -55 -4 -103
-10 -106 -6 -4 -9 51 -9 150 1 145 3 155 20 155 16 0 19 -8 19 -50z m69 -136
c0 -102 -3 -194 -9 -204 -5 -10 -35 -35 -67 -56 -32 -21 -74 -53 -93 -70 -19
-18 -36 -32 -37 -30 -11 11 19 42 99 101 l90 67 -6 127 c-3 69 -8 154 -12 189
-6 58 -5 62 14 62 19 0 20 -7 21 -186z m135 178 c2 -4 0 -41 -5 -82 -5 -41
-12 -137 -15 -212 -3 -77 -10 -135 -15 -132 -5 3 -9 102 -9 220 0 205 1 214
19 214 11 0 22 -4 25 -8z m66 -36 c0 -25 -4 -48 -10 -51 -6 -4 -10 -100 -10
-256 0 -204 -2 -249 -14 -249 -10 0 -12 15 -8 69 4 65 3 68 -19 76 l-24 8 24
4 23 5 -2 211 c-1 117 -2 215 -1 220 0 4 10 7 21 7 17 0 20 -7 20 -44z m564
27 c3 -10 1 -36 -4 -58 -5 -22 -10 -72 -10 -112 0 -39 -5 -75 -10 -78 -7 -5
-10 20 -9 72 1 44 -4 89 -10 101 -12 23 -15 75 -4 85 13 13 42 7 47 -10z m62
-60 c-3 -42 -6 -103 -6 -135 0 -37 -4 -57 -10 -53 -5 3 -10 39 -10 78 -1 40
-5 92 -9 116 -11 54 -5 71 22 71 19 0 20 -4 13 -77z m84 39 c0 -26 -7 -45 -20
-57 -20 -18 -20 -26 -14 -211 l6 -192 -37 -41 c-38 -42 -65 -53 -65 -26 0 8 7
15 15 15 9 0 26 11 38 24 21 23 22 30 22 275 l0 251 28 0 c25 0 27 -3 27 -38z
m63 -134 c-3 -95 -7 -175 -9 -177 -2 -2 -4 47 -4 110 0 86 -4 120 -15 135 -8
10 -15 38 -15 62 0 38 2 42 24 42 l24 0 -5 -172z m97 -81 c0 -276 0 -274 58
-291 23 -8 31 -36 10 -36 -7 0 -27 13 -45 28 l-32 27 -3 208 c-3 184 -5 210
-21 222 -11 8 -17 26 -17 54 0 37 2 41 25 41 l25 0 0 -253z m64 203 c-1 -25
-4 -94 -8 -154 -5 -98 -3 -112 14 -137 12 -16 20 -43 20 -68 0 -28 5 -44 15
-47 12 -5 13 -9 4 -20 -20 -25 -39 3 -39 59 0 33 -6 57 -17 69 -13 15 -16 38
-14 132 1 71 -2 117 -8 121 -6 3 -11 26 -11 51 0 41 2 45 23 42 19 -3 22 -8
21 -48z m62 -47 c-4 -54 -9 -114 -12 -133 -4 -31 0 -40 32 -73 42 -42 52 -82
53 -219 1 -77 -9 -102 -32 -79 -9 9 -8 14 2 20 10 7 13 34 12 112 l-2 104 -40
41 -40 41 -4 142 c-3 136 -3 141 17 141 20 0 20 -4 14 -97z m81 81 c3 -8 0
-34 -7 -57 -7 -23 -13 -72 -14 -109 l-1 -67 38 -15 37 -14 -1 -144 c0 -105 -3
-136 -10 -118 -6 13 -9 68 -7 121 3 103 -4 123 -49 140 -20 8 -23 16 -24 71
-1 35 -2 68 -3 73 -13 80 -17 116 -11 125 10 16 45 12 52 -6z m67 -24 c-7
-183 -10 -228 -16 -222 -3 4 -9 41 -12 82 -3 41 -8 99 -12 128 -6 52 -5 54 17
50 20 -2 24 -8 23 -38z m76 -4 c0 -27 -6 -48 -15 -56 -13 -11 -15 -42 -13
-199 l3 -186 32 -2 33 -1 -6 191 c-4 106 -11 200 -15 209 -5 9 -9 33 -9 52 0
31 3 36 24 36 l23 0 -4 -242 c-5 -287 -6 -293 -34 -277 -29 15 -41 0 -37 -47
3 -34 6 -39 26 -36 24 4 29 -7 11 -25 -8 -8 -17 -5 -34 13 -23 25 -23 30 -24
247 -1 122 -4 255 -7 295 l-7 72 27 0 c24 0 26 -3 26 -44z m133 7 c4 -25 2
-42 -8 -53 -18 -20 -24 -425 -6 -443 16 -16 14 -57 -4 -57 -8 0 -16 -10 -16
-22 l-2 -23 -4 22 c-2 12 0 31 6 41 8 15 7 21 -4 26 -17 6 -20 46 -4 46 9 0
10 55 5 208 -4 114 -9 215 -12 225 -9 30 5 67 25 67 13 0 20 -10 24 -37z m62
-60 c-3 -54 -11 -160 -16 -237 l-10 -139 26 -27 c23 -25 26 -33 23 -94 -2 -36
-7 -66 -13 -66 -6 0 -9 26 -7 64 3 54 1 66 -15 77 -35 25 -39 44 -29 134 9 79
8 87 -10 100 -19 14 -18 15 4 33 22 17 23 24 19 83 -3 35 -9 81 -12 101 -9 48
-1 68 26 68 20 0 21 -3 14 -97z m72 23 c-10 -117 11 -519 28 -528 11 -7 11
-13 -2 -38 -8 -17 -18 -28 -22 -26 -4 3 -6 40 -5 83 1 42 -2 87 -6 99 -5 11
-10 96 -11 189 -2 112 -7 176 -16 192 -7 14 -13 43 -13 64 0 35 2 39 26 39
l27 0 -6 -74z m63 47 c-2 -123 10 -533 16 -550 5 -17 2 -23 -10 -23 -10 0 -16
8 -16 23 -1 151 -15 466 -21 479 -5 9 -9 35 -9 57 0 34 3 41 20 41 15 0 20 -7
20 -27z m63 -205 c-2 -128 -7 -234 -11 -236 -5 -1 -9 79 -11 180 -1 100 -7
190 -12 199 -10 20 -12 73 -2 82 3 4 14 7 22 7 15 0 16 -24 14 -232z m60 30
c-4 -192 -8 -236 -18 -227 -2 3 -6 100 -8 217 -4 197 -3 212 14 212 16 0 17
-14 12 -202z m72 150 c-3 -29 -9 -110 -11 -179 l-5 -126 31 -32 c17 -17 37
-31 43 -31 7 0 6 4 -3 10 -12 7 -16 46 -21 197 -4 103 -4 194 -2 201 3 6 14
12 25 12 18 0 19 -5 14 -52 -3 -29 -6 -66 -6 -82 0 -15 -5 -35 -11 -42 -16
-19 -5 -177 15 -225 8 -19 36 -52 62 -72 51 -40 80 -75 70 -85 -4 -3 -17 5
-29 20 -12 14 -53 49 -92 78 -106 79 -105 78 -105 185 0 52 -5 128 -11 170
-12 88 -8 105 22 105 20 0 20 -4 14 -52z m141 -45 c-8 -106 -16 -136 -16 -56
0 36 -4 53 -15 57 -10 4 -15 20 -15 51 0 42 2 45 26 45 l26 0 -6 -97z m74 48
c0 -28 -4 -53 -10 -56 -6 -4 -10 -63 -10 -143 l0 -137 31 -38 c22 -27 38 -37
60 -37 19 0 29 -5 29 -15 0 -8 -1 -15 -3 -15 -16 0 -87 44 -109 67 l-26 28 -2
190 c-2 105 -2 193 -1 198 0 4 10 7 21 7 17 0 20 -7 20 -49z m64 -59 c-7 -107
-6 -108 21 -140 15 -17 35 -32 46 -32 10 0 19 -7 19 -15 0 -33 -35 -14 -83 43
-23 28 -27 43 -27 92 0 32 -4 62 -10 65 -11 7 -14 78 -3 88 3 4 15 7 25 7 18
0 19 -6 12 -108z m76 79 c0 -47 -12 -121 -20 -121 -8 0 -18 40 -27 108 -5 40
-4 42 21 42 22 0 26 -4 26 -29z m120 -18 c0 -44 3 -49 62 -104 34 -32 59 -61
54 -66 -4 -4 -13 -1 -19 7 -7 8 -36 35 -64 58 -47 39 -53 48 -53 82 0 48 -18
62 -22 18 -2 -25 -8 -34 -25 -36 -21 -3 -23 1 -23 42 l0 46 45 0 45 0 0 -47z
m-3200 -28 c0 -16 -6 -25 -15 -25 -18 0 -20 21 -3 38 17 17 18 16 18 -13z
m3504 -13 c-4 -12 -10 -22 -14 -22 -13 0 -18 38 -7 49 16 16 27 0 21 -27z
m-3556 -5 c2 -10 -3 -17 -12 -17 -10 0 -16 9 -16 21 0 24 23 21 28 -4z m3622
-3 c0 -8 -9 -14 -20 -14 -22 0 -26 10 -8 28 13 13 28 7 28 -14z m-429 -105
c13 -11 37 -23 54 -27 22 -6 31 -16 36 -40 3 -17 4 -34 1 -37 -11 -11 -32 -4
-32 10 0 8 5 15 10 15 24 0 6 19 -35 39 -62 29 -85 54 -85 94 0 50 14 55 21 7
4 -28 14 -49 30 -61z m-311 -29 c0 -53 -4 -90 -10 -90 -11 0 -14 162 -3 173
12 13 13 7 13 -83z m-1310 -95 l-42 -43 6 -98 c4 -60 2 -105 -4 -114 -7 -10
-10 23 -10 107 l0 123 34 38 c19 21 38 51 43 67 l8 30 3 -34 c3 -28 -3 -41
-38 -76z m-1342 72 c2 -10 -3 -17 -12 -17 -18 0 -29 16 -21 31 9 14 29 6 33
-14z m3162 0 c0 -8 -3 -17 -7 -20 -9 -9 -34 13 -27 24 8 14 34 11 34 -4z
m-1873 -69 c-21 -28 -26 -48 -32 -136 -6 -91 -5 -106 11 -123 16 -18 16 -19
-11 -19 -23 0 -26 3 -21 23 3 12 6 68 6 124 0 99 1 102 32 137 39 44 49 40 15
-6z m119 -22 c-9 -14 -16 -42 -16 -63 0 -39 -31 -103 -50 -103 -15 0 -12 26 4
39 8 7 17 35 21 64 4 31 15 61 28 74 26 29 35 21 13 -11z m824 -16 c0 -5 -4
-10 -10 -10 -5 0 -10 5 -10 10 0 6 5 10 10 10 6 0 10 -4 10 -10z m-1532 -113
c2 -12 -3 -17 -17 -17 -15 0 -21 6 -21 21 0 25 33 22 38 -4z m1760 6 c-4 -22
-22 -20 -26 1 -2 10 3 16 13 16 10 0 15 -7 13 -17z m-628 -34 c0 -10 -4 -19
-9 -19 -12 0 -23 29 -15 41 8 14 24 0 24 -22z m-841 -61 c-14 -19 -22 -45 -22
-65 1 -32 -10 -43 -22 -23 -8 12 10 70 39 128 19 40 21 41 24 18 2 -15 -6 -39
-19 -58z m1815 33 c5 -29 4 -32 -9 -21 -16 13 -20 42 -8 53 8 9 9 8 17 -32z
m-2463 -22 c-10 -23 -10 -23 -10 7 -1 17 2 34 7 38 11 12 14 -18 3 -45z m736
4 c-3 -10 -5 -4 -5 12 0 17 2 24 5 18 2 -7 2 -21 0 -30z m1797 29 c8 -13 -11
-35 -23 -28 -16 10 -14 36 3 36 8 0 17 -4 20 -8z m-2439 -42 c11 -17 -5 -32
-21 -19 -7 6 -11 15 -8 20 7 12 21 11 29 -1z m2285 -15 c0 -8 -7 -15 -15 -15
-8 0 -15 7 -15 15 0 8 7 15 15 15 8 0 15 -7 15 -15z m-780 -9 c0 -8 -5 -18
-11 -22 -14 -8 -33 11 -25 25 10 16 36 13 36 -3z m-830 -31 c0 -8 -7 -15 -15
-15 -8 0 -15 7 -15 15 0 8 7 15 15 15 8 0 15 -7 15 -15z m-332 -28 c2 -10 -3
-17 -12 -17 -10 0 -16 9 -16 21 0 24 23 21 28 -4z m1405 8 c8 -19 -13 -31 -23
-14 -9 14 -4 29 10 29 4 0 10 -7 13 -15z m186 -22 c-15 -18 -34 -1 -25 22 5
14 9 15 21 5 12 -10 13 -16 4 -27z"/>
<path d="M2177 4173 c-4 -3 -7 -276 -7 -605 l0 -598 1109 0 1108 0 7 38 c10
63 7 1118 -4 1146 l-10 26 -1098 0 c-604 0 -1102 -3 -1105 -7z"/>
<path d="M4174 2830 c-29 -12 -49 -62 -35 -89 25 -46 80 -54 110 -15 27 35 26
59 -4 89 -26 26 -37 29 -71 15z"/>
</g>
</svg>
